<svg width="64" height="42" viewBox="0 0 64 42" xmlns="http://www.w3.org/2000/svg"><style>.a{fill:#f2b430;}.b{fill:#1d7ed0;}</style><g fill="none"><path d="M12 31C11.9 31 11.8 31 11.8 30.9 11.5 30.8 11.4 30.5 11.6 30.2 11.6 30.2 13.5 26.8 13.5 20 13.5 13.3 11.6 9.8 11.6 9.7 11.4 9.5 11.5 9.2 11.8 9.1 12 8.9 12.3 9 12.4 9.3 12.5 9.4 14.5 13 14.5 20 14.5 27.1 12.5 30.6 12.4 30.8 12.3 30.9 12.2 31 12 31" class="a"/><path d="M11 9C4.9 9 0 13.9 0 20 0 26.1 4.9 31 11 31 17.1 31 22 26.1 22 20 22 13.9 17.1 9 11 9M11 10C16.5 10 21 14.5 21 20 21 25.5 16.5 30 11 30 5.5 30 1 25.5 1 20 1 14.5 5.5 10 11 10" class="b"/><path d="M11 10C10.8 10 10.5 9.8 10.5 9.6 10.5 9.3 10.6 9.1 10.9 9L51.9 2C52.2 2 52.4 2.1 52.5 2.4 52.5 2.7 52.4 2.9 52.1 3L11.1 10C11.1 10 11 10 11 10" class="b"/><path d="M58 41C58 41 57.9 41 57.9 41L10.9 31C10.6 30.9 10.5 30.7 10.5 30.4 10.6 30.1 10.8 30 11.1 30L58.1 40C58.4 40.1 58.5 40.3 58.5 40.6 58.4 40.8 58.2 41 58 41" class="b"/><path d="M63.5 26.5C63.5 26.5 63.5 26.5 63.5 26.5L11 22.5C10.7 22.5 10.5 22.2 10.5 22 10.5 21.7 10.8 21.5 11 21.5L63.5 25.5C63.8 25.5 64 25.8 64 26 64 26.3 63.8 26.5 63.5 26.5" class="b"/><path d="M21 16.5C20.7 16.5 20.5 16.3 20.5 16 20.5 15.8 20.7 15.5 21 15.5L43 13.5C43.2 13.5 43.5 13.7 43.5 14 43.5 14.2 43.3 14.5 43 14.5L21 16.5C21 16.5 21 16.5 21 16.5" class="b"/><path d="M3 19.5C2.7 19.5 2.5 19.3 2.5 19 2.5 14.8 5.8 11.5 10 11.5 10.3 11.5 10.5 11.7 10.5 12 10.5 12.3 10.3 12.5 10 12.5 6.4 12.5 3.5 15.4 3.5 19 3.5 19.3 3.3 19.5 3 19.5" class="b"/><path d="M14.7 1.6L15.9 1.8C16 1.9 16 2.1 15.9 2.2L14.7 2.4C14.6 2.5 14.5 2.5 14.5 2.6L14.2 3.9C14.1 4 13.9 4 13.8 3.9L13.5 2.6C13.5 2.5 13.4 2.5 13.3 2.4L12.1 2.2C12 2.1 12 1.9 12.1 1.8L13.3 1.6C13.4 1.5 13.5 1.5 13.5 1.4L13.8 0.1C13.9 0 14.1 0 14.2 0.1L14.5 1.4C14.5 1.5 14.6 1.5 14.7 1.6" class="a"/><path d="M29.7 39.6L30.9 39.8C31 39.9 31 40.1 30.9 40.2L29.7 40.4C29.6 40.5 29.5 40.5 29.5 40.6L29.2 41.9C29.1 42 28.9 42 28.8 41.9L28.5 40.6C28.5 40.5 28.4 40.5 28.3 40.4L27.1 40.2C27 40.1 27 39.9 27.1 39.8L28.3 39.6C28.4 39.5 28.5 39.5 28.5 39.4L28.8 38.1C28.9 38 29.1 38 29.2 38.1L29.5 39.4C29.5 39.5 29.6 39.5 29.7 39.6" class="a"/></g></svg>